<svg xmlns="http://www.w3.org/2000/svg" width="800" height="600" viewBox="0 0 800 600">
  <!-- Background -->
  <rect width="800" height="600" fill="#1a1a1a" />
  
  <!-- Crown Icon -->
  <g transform="translate(400, 220) scale(0.8)">
    <path d="M0,-30 L15,-10 L30,-30 L45,-10 L30,10 L-30,10 L-45,-10 L-30,-30 L-15,-10 Z" fill="#e6c88a" />
    <path d="M-25,10 C-25,20 -15,25 0,25 C15,25 25,20 25,10 Z" fill="#e6c88a" />
  </g>
  
  <!-- Le Veneor Text -->
  <g transform="translate(400, 380) scale(1.8)">
    <path d="M-160,-20 C-150,-20 -145,-15 -145,0 C-145,15 -150,20 -160,20 L-180,20 L-180,-20 Z M-170,-10 L-170,10 L-160,10 C-155,10 -155,0 -155,0 C-155,0 -155,-10 -160,-10 Z" fill="#e6c88a" />
    <path d="M-130,20 L-130,-20 L-90,-20 L-90,-10 L-120,-10 L-120,-5 L-100,-5 L-100,5 L-120,5 L-120,10 L-90,10 L-90,20 Z" fill="#e6c88a" />
    
    <!-- Stylized V -->
    <path d="M-70,-20 L-50,20 L-40,20 L-20,-20 L-30,-20 L-45,10 L-60,-20 Z" fill="#e6c88a" />
    
    <!-- Stylized e -->
    <path d="M0,-20 C15,-20 25,-10 25,0 C25,10 15,20 0,20 C-15,20 -25,10 -25,0 C-25,-10 -15,-20 0,-20 Z M0,-10 C-5,-10 -15,-5 -15,0 C-15,5 -5,10 0,10 C5,10 15,5 15,0 C15,-5 5,-10 0,-10 Z" fill="#e6c88a" />
    
    <!-- Stylized n -->
    <path d="M40,-20 L50,-20 L50,20 L40,20 L40,0 C40,-5 35,-10 30,-10 C25,-10 20,-5 20,0 L20,20 L10,20 L10,-20 L20,-20 L20,-10 C25,-15 30,-20 40,-20 Z" fill="#e6c88a" />
    
    <!-- Stylized e -->
    <path d="M80,-20 C95,-20 105,-10 105,0 C105,10 95,20 80,20 C65,20 55,10 55,0 C55,-10 65,-20 80,-20 Z M80,-10 C75,-10 65,-5 65,0 C65,5 75,10 80,10 C85,10 95,5 95,0 C95,-5 85,-10 80,-10 Z" fill="#e6c88a" />
    
    <!-- Stylized o -->
    <path d="M130,-20 C145,-20 155,-10 155,0 C155,10 145,20 130,20 C115,20 105,10 105,0 C105,-10 115,-20 130,-20 Z M130,-10 C125,-10 115,-5 115,0 C115,5 125,10 130,10 C135,10 145,5 145,0 C145,-5 135,-10 130,-10 Z" fill="#e6c88a" />
    
    <!-- Stylized r -->
    <path d="M170,-20 L180,-20 L180,20 L170,20 L170,0 C170,-5 165,-10 160,-10 L160,20 L150,20 L150,-20 L160,-20 L160,-10 C165,-15 170,-20 170,-20 Z" fill="#e6c88a" />
  </g>
  
  <!-- CLOTHING Text -->
  <g transform="translate(400, 450)">
    <text x="0" y="0" font-family="Arial" font-size="24" font-weight="bold" text-anchor="middle" fill="#e6c88a" letter-spacing="10">CLOTHING</text>
  </g>
</svg>